<svg t="1600001003954" class="icon" viewBox="0 0 1024 1024" version="1.1" xmlns="http://www.w3.org/2000/svg" p-id="7137" width="200" height="200"><path d="M440.7 581.2l-1.6-0.6-48.1-39.5-4.1 0.3-2.6-1.9-2-7.9-39.3-45.4 0.2-3.5 10.6-9.2 1.6-0.6h21c4.7-5 28.9-30.4 42.9-38.5 12.4-7.2 22.8-13.2 26-15.1l8.5-51.5 0.7-1.4 14-13.7 1.7-0.7H552l1.6 0.5 13.3 10.7 0.9 1.6 8.1 52.3c5.8 2.7 30.1 14.2 39.8 23.9 9.5 9.5 22.8 26.9 26.2 31.3l24.8 0.3 1.7 0.7 11.6 10.5 0.2 3.5-43 49.9-0.4 0.4-57 43-1.5 0.5H440.7z" fill="#CECECE" p-id="7138"></path><path d="M552 354.7l13.3 10.7 8.3 53.7s29.7 13.3 40.3 24c10.7 10.7 26.7 32 26.7 32l26 0.3 11.6 10.5-43 49.9-57 43H440.7l-48.9-40.2-5.1 0.4-2.1-8.5-39.7-45.8 10.6-9.2h22.1s28.1-30.2 43.1-38.8 27-15.7 27-15.7l8.7-52.7 14-13.7H552m0-4.9h-81.7l-3.5 1.4-14 13.7-1.4 2.8-8.3 50.3c-4 2.4-13.7 8-25 14.5-13.6 7.9-36.6 31.7-42.7 38.2h-20l-3.3 1.2-10.6 9.2-0.5 7 38.9 44.9 1.8 7.3 5.3 3.8 3-0.3 47.3 38.9 3.2 1.1H578l3-1 57-43 0.8-0.7 43-49.9-0.4-7-11.4-10.5-3.3-1.3-23.6-0.3c-4.3-5.6-16.6-21.6-25.6-30.6-9.4-9.4-31.8-20.4-39.3-23.9l-7.9-51-1.8-3.1-13.3-10.7-3.2-1z" fill="#333333" p-id="7139"></path><path d="M657.8 749.7V634.2l0.8-1.8 37.8-34.5 3.1-0.2 22 15.8 1 2.3c-0.3 2.4-7.4 57.9-17.7 78.6-10.3 20.6-41.3 55.6-42.6 57l-4.4-1.7z" fill="#3F3F3F" p-id="7140"></path><path d="M698 599.7l22 15.8s-7.2 57.2-17.5 77.8-42.2 56.5-42.2 56.5V634.2l37.7-34.5m2.9-4.1l-6.3 0.4-37.8 34.5-1.6 3.7v115.5l8.7 3.3c1.3-1.5 32.6-36.7 43-57.6 10.5-21 17.7-77 18-79.4l-2-4.7-22-15.7z" fill="#333333" p-id="7141"></path><path d="M362.1 748.7c-1.3-1.5-32.3-36.5-42.6-57-10.3-20.6-17.4-76.2-17.7-78.6l1-2.3 22-15.8 3.1 0.2 37.8 34.5 0.8 1.8V747l-4.4 1.7z" fill="#3F3F3F" p-id="7142"></path><path d="M326.2 597l37.8 34.5V747s-32-36-42.2-56.5-17.5-77.8-17.5-77.8l21.9-15.7m-2.9-4.1l-22 15.8-2 4.7c0.3 2.4 7.5 58.3 18 79.4 10.4 20.9 41.7 56.1 43 57.6l8.7-3.3V631.5l-1.6-3.7-37.8-34.5-6.3-0.4z" fill="#333333" p-id="7143"></path><path d="M338.5 645.8c-11.3 0-20.5-9.2-20.5-20.5s9.2-20.5 20.5-20.5S359 614 359 625.3s-9.2 20.5-20.5 20.5z" fill="#2D2D2D" p-id="7144"></path><path d="M338.5 607.3c9.9 0 18 8.1 18 18s-8.1 18-18 18-18-8.1-18-18c0-10 8.1-18 18-18m0-5c-12.7 0-23 10.3-23 23s10.3 23 23 23 23-10.3 23-23-10.3-23-23-23z" fill="#333333" p-id="7145"></path><path d="M338.5 635.5c-5.7 0-10.2-4.6-10.2-10.2s4.6-10.2 10.2-10.2 10.2 4.6 10.2 10.2-4.5 10.2-10.2 10.2z" fill="#111111" p-id="7146"></path><path d="M338.5 617.5c4.3 0 7.8 3.5 7.8 7.8s-3.5 7.8-7.8 7.8-7.8-3.5-7.8-7.8 3.5-7.8 7.8-7.8m0-5c-7 0-12.8 5.7-12.8 12.8s5.7 12.8 12.8 12.8 12.8-5.7 12.8-12.8-5.8-12.8-12.8-12.8z" fill="#333333" p-id="7147"></path><path d="M682 645.8c-11.3 0-20.5-9.2-20.5-20.5s9.2-20.5 20.5-20.5 20.5 9.2 20.5 20.5-9.2 20.5-20.5 20.5z" fill="#2D2D2D" p-id="7148"></path><path d="M682 607.3c9.9 0 18 8.1 18 18s-8.1 18-18 18-18-8.1-18-18c0-10 8.1-18 18-18m0-5c-12.7 0-23 10.3-23 23s10.3 23 23 23 23-10.3 23-23-10.3-23-23-23z" fill="#333333" p-id="7149"></path><path d="M682 635.5c-5.7 0-10.2-4.6-10.2-10.2S676.3 615 682 615s10.2 4.6 10.2 10.2-4.5 10.3-10.2 10.3z" fill="#111111" p-id="7150"></path><path d="M682 617.5c4.3 0 7.8 3.5 7.8 7.8s-3.5 7.8-7.8 7.8-7.8-3.5-7.8-7.8 3.5-7.8 7.8-7.8m0-5c-7 0-12.8 5.7-12.8 12.8S675 638 682 638s12.8-5.7 12.8-12.8-5.8-12.7-12.8-12.7z" fill="#333333" p-id="7151"></path><path d="M322.2 665.7l-2.5-2.5v-12.5l2.5-2.5h44.7l2.5 2.5v12.5l-2.5 2.5z" fill="#EFEFEF" p-id="7152"></path><path d="M366.9 650.7v12.5h-44.7v-12.5h44.7m0-5h-44.7l-5 5v12.5l5 5h44.7l5-5v-12.5l-5-5z" fill="#333333" p-id="7153"></path><path d="M656.6 665.7l-2.5-2.5v-12.5l2.5-2.5h44.3l2.5 2.5v12.5l-2.5 2.5z" fill="#EFEFEF" p-id="7154"></path><path d="M700.9 650.7v12.5h-44.3v-12.5h44.3m0-5h-44.3l-5 5v12.5l5 5h44.3l5-5v-12.5l-5-5z" fill="#333333" p-id="7155"></path><path d="M368.4 768.5c-1.6-0.3-38.4-8.4-59.2-58.8-20.4-49.5-26.4-92.9-26.4-93.4l-5.5-62.4 0.3-1.4 9.2-16.7 4.3-0.2 38.3 58-0.7 3.4-23.7 16.1c1.4 9.7 9.5 62.7 23.8 88.9 15.6 28.7 39.5 47.8 39.7 48l0.9 2v9.7l1.7 3.1-2.7 3.7z" fill="#F9F9F9" p-id="7156"></path><path d="M289 537l38.3 58-25 17s8.2 61.8 24.2 91.2 40.4 48.8 40.4 48.8v10.3l2 3.7s-36.9-7.5-57.4-57.3-26.3-92.7-26.3-92.7l-5.4-62.2L289 537m4.1-2.7l-8.6 0.4-9.2 16.7-0.6 2.8 5.4 62.2v0.2c0.2 1.8 6.1 44.2 26.6 94 11.1 26.8 26.9 41.7 38.2 49.5 12.5 8.6 22.4 10.7 22.8 10.8l5.4-7.3-1.4-2.6v-9l-1.9-3.9c-0.2-0.2-23.8-19-39.1-47.2-13.4-24.7-21.4-73.8-23.3-86.5l22.4-15.2 1.4-6.9-38.1-58z" fill="#333333" p-id="7157"></path><path d="M651.9 764.8l1.7-3.1V752l0.9-2c0.2-0.2 24.2-19.3 39.7-48 14.2-26.2 22.4-79.2 23.8-88.9L694.3 597l-0.7-3.4 38.3-58 4.3 0.2 9.2 16.7 0.3 1.4-5.5 62.4c-0.1 0.4-6 43.9-26.4 93.4-20.8 50.4-57.6 58.5-59.2 58.8l-2.7-3.7z" fill="#F9F9F9" p-id="7158"></path><path d="M734 537l9.2 16.7-5.4 62.2s-5.8 43-26.3 92.8-57.4 57.3-57.4 57.3l2-3.7V752s24.4-19.2 40.4-48.8 24.2-91.2 24.2-91.2l-25-17 38.3-58m-4.2-2.7l-38.3 58 1.4 6.9 22.4 15.2c-1.9 12.7-9.9 61.8-23.3 86.5-15.3 28.3-38.8 47-39.1 47.2L651 752v9.1l-1.4 2.6 5.4 7.3c0.4-0.1 10.4-2.2 22.8-10.8 11.3-7.8 27.1-22.7 38.2-49.5 20.5-49.8 26.4-92.2 26.6-94v-0.2l5.4-62.2-0.6-2.8-9.2-16.7-8.4-0.5z" fill="#333333" p-id="7159"></path><path d="M456.3 535.5l-2.4-3.2 17.7-61.5 2.4-1.8h77.3l2.4 1.8 17.4 61.5-2.4 3.2z" fill="#CECECE" p-id="7160"></path><path d="M551.3 471.5l17.3 61.5H456.3l17.7-61.5h77.3m0-5H474l-4.8 3.6-17.7 61.5 4.8 6.4h112.3l4.8-6.4-17.3-61.5-4.8-3.6z" fill="#333333" p-id="7161"></path><path d="M474 525.8l-2.4-3.1 11-45 2.4-1.9h55l2.4 1.9 11.4 45-2.5 3.1z" fill="#0086FF" p-id="7162"></path><path d="M540 478.3l11.3 45H474l11-45h55m0-5h-55l-4.9 3.8-11 45 4.9 6.2h77.3l4.8-6.2-11.3-45-4.8-3.8z" fill="#333333" p-id="7163"></path><path d="M557.3 421l18.7 47.3-0.7 72.2H450.8v-87.4l14.5-32.1 8.7 50.5-17.7 61.5h112.3l-17.3-61.5 6-50.5m-96.5-2.1L446.3 451l-0.4 2.1v87.4l5 5h124.5l5-5 0.7-72.2-0.3-1.9-18.8-47.2-9.6 1.2-6 50.5 0.2 1.9 15.5 55.1H463l15.8-55.1 0.1-2.2-8.7-50.5-9.4-1.2z" fill="#333333" p-id="7164"></path><path d="M425.2 733.2v-18.4l-30.6-43.6-0.5-1.4v-32.9l3.5-2.3 84.4 37.2 1.3 1.5 8.6 28.7h43.2l2.7-9.2 2.9-1.8 41 8.9 32.8-39.8-5.3-21 1.4-2.9 18.1-7.9 3.5 2.3v35.6l-0.4 1.5-32 47.1v16.4l-3.3 2.4-60.9-19.1h-47.4l-59.6 21.1z" fill="#0086FF" p-id="7165"></path><path d="M629.7 630.6v35.6L597.2 714v17.2L536 712h-48.2l-60 21.2V714l-31.1-44.2V637l84.3 37 9 30.5h47l3.2-11 42.4 9.1 34.6-41.9-5.6-22.2 18.1-7.9m-2-4.6l-18.1 7.9-2.9 5.8 5 19.8-31.1 37.6-39.4-8.5-5.9 3.5-2.2 7.4h-39.5l-8-26.9-2.8-3.2-84.3-37.1-7 4.6v32.8l0.9 2.9 30.2 43v17.7l6.7 4.7 59.2-21h46.6l60.5 19 6.5-4.8v-15.7l31.6-46.5 0.9-2.8v-35.6l-6.9-4.6z" fill="#333333" p-id="7166"></path><path d="M435.7 704.8l-31.9-41.3-0.5-1.8 2.2-20 3.5-2 73 32.1 1.3 1.5 5.6 18.7-1.9 3.1-48.8 10.6z" fill="#FFE600" p-id="7167"></path><path d="M408 641.9l73 32.1 5.5 18.7-48.8 10.5-31.9-41.2 2.2-20.1m2-4.5l-7 4-2.3 20.1 1 3.6 31.9 41.2 5 1.8 48.8-10.5 3.7-6.3-5.5-18.7-2.8-3.2-72.8-32z" fill="#333333" p-id="7168"></path><path d="M539.7 695.9l-1.9-3.1 7.6-25.8 1.3-1.5 63.9-29.3 3.5 1.7 5.6 22.2-0.5 2.2-34.6 41.9-2.5 0.9z" fill="#FFE600" p-id="7169"></path><path d="M611.6 638.5l5.6 22.2-34.6 41.9-42.4-9.1 7.5-25.7 63.9-29.3m-2-4.5l-63.9 29.2-2.7 3.1-7.5 25.7 3.7 6.3 42.4 9.1 4.9-1.7 34.6-41.9 1-4.4-5.6-22.2-6.9-3.2z" fill="#333333" p-id="7170"></path><path d="M490 707l-2.4-1.8-8.8-29.5-86.3-54.7-0.8-0.7-17.3-25.3-28.4-13.2-1.1-0.9-233.9-341 2-3.9h18.5l1.9 0.9 253.2 292 0.5 1 15.4 62.1 19.1 31 19.7-6.9v-33.6l2.5-2.5h131.7l2.5 2.5v31l21 9.3 19.3-30.7 10.4-52.1 0.5-1.1 260.4-302 1.9-0.9H909l2.1 3.9-236.1 341-1.2 1-36.7 13.1-8.2 24.7-1.1 1.3-77.9 48.4-10.5 35.8-2.4 1.8z" fill="#F9F9F9" p-id="7171"></path><path d="M909 238.5l-236 341-37.9 13.5-8.6 25.9-78.8 48.9-10.7 36.7h-47l-9-30.5-87.1-55.1-17.8-25.9-29-13.5-234-341h18.5l253.2 292 15.5 62.5 20.3 33 23.3-8.1v-35.4h131.7v32.7L600 626l20.7-33 10.5-52.5 260.4-302H909m0-5h-17.5l-3.8 1.7-260.4 302-1.1 2.3-10.3 51.6-17.9 28.5-17.6-7.8v-29.4l-5-5H443.8l-5 5v31.8l-16.2 5.6-17.8-28.9-15.3-61.8-1.1-2.1-253.2-292-3.8-1.7H113l-4.1 7.8 234 341 2 1.7 27.8 12.9 17 24.7 1.4 1.4 85.6 54.1 8.5 28.7 4.8 3.6h47l4.8-3.6L552 671l77.1-47.8 2.1-2.7 7.8-23.6 35.6-12.7 2.4-1.9 236-341-4-7.8z m0 10z" fill="#333333" p-id="7172"></path><path d="M372.5 629l-16.1 8.7-3.3-0.8L104 266.6l-0.4-2 7-26.7 4.5-0.8 233.6 340.4 28.4 13.3 1 0.8 17.5 25.5 86.7 54.8-2.4 4.4z" fill="#CECECE" p-id="7173"></path><path d="M113 238.5l234 341 29 13.5 17.8 25.9L481 674l-108.6-47.8-17.2 9.2L106 265.2l7-26.7m4.1-2.8l-9 1.6-7 26.8 0.7 4.1L351 638.4l6.5 1.6 15-8.1 106.4 46.8 4.7-8.8-86.3-54.6-17.2-25-2-1.7-27.8-12.9-233.2-340z" fill="#333333" p-id="7174"></path><path d="M546.4 665.6l78-48.3 8.3-25.1 1.5-1.5 37.2-13.3 235.5-340.3 4.5 0.7 7.4 25.7-0.4 2.1-247.2 370.5-3.1 0.9-23.9-10.6-95.4 43.6z" fill="#CECECE" p-id="7175"></path><path d="M909 238.5l7.3 25.7-247.2 370.6-24.9-11.1-96.4 44.1 78.8-48.9 8.6-25.9 37.9-13.5 235.9-341m-4.1-2.8L669.8 575.3l-36.4 13-3.1 3.1-8 24.2-77.2 47.9 4.7 8.8 94.4-43.2 22.8 10.2 6.2-1.8L920.5 267l0.6-4.2-7.3-25.7-8.9-1.4z" fill="#333333" p-id="7176"></path><path d="M446.8 540.5V579L496 690.5h33.3l47.7-116v-34h-25.5l-19 27H493l-20.4-27z" fill="#F22200" p-id="7177"></path><path d="M426.7 802.2l-0.9-2v-67.3l1.6-2.4 59.5-20.9 0.9-0.1H536l0.8 0.1 61.2 19.3 1.8 2.3v69l-1 2-40.5 31-3.8-0.8-21.3-42.6h-44.3l-17.1 42.4-3.8 1z" fill="#F9F9F9" p-id="7178"></path><path d="M536 712l61.2 19.2v69l-40.5 31-22-44h-47.5l-17.8 44-41.2-31v-67.4l59.5-20.9H536m0-4.9h-48.2l-1.7 0.3-59.5 20.9-3.3 4.7v67.4l2 4 41.2 31 7.6-2.1 16.5-40.9h41l20.6 41.2 7.5 1.7 40.5-31 2-4v-69l-3.5-4.8-61.2-19.2-1.5-0.2z" fill="#333333" p-id="7179"></path><path d="M431.5 797.7l-1.3-1.9-4.4-37.7v-3.4l2.4-2.5h3.3l2.4 1.9 10 45.5-3.6 2.8z" fill="#3F3F3F" p-id="7180"></path><path d="M431.5 754.7l10 45.5-8.8-4.7-4.4-37.7v-3.2h3.2m0-4.9h-3.2l-5 5V758.5l4.4 37.7 2.6 3.8 8.8 4.7 7.2-5.5-10-45.5-4.8-4z" fill="#333333" p-id="7181"></path><path d="M581.6 799.6l10-45.5 2.4-1.9h3.2l2.6 2.5v3.1l-0.1 0.3-4.4 37.7-1.3 1.9-8.8 4.7z" fill="#3F3F3F" p-id="7182"></path><path d="M597.2 754.7v3.2l-4.4 37.7-8.8 4.7 10-45.5h3.2m0-5.1H594l-4.9 3.9-10 45.5 7.2 5.5 8.8-4.7 2.6-3.8 4.4-37.7V754.6l-4.9-4.9z" fill="#333333" p-id="7183"></path><path d="M492 869.5l-2.3-1.6-12.2-30.2-0.2-0.9v-8.6l0.2-1 13.1-30.2 2.3-1.5h36.9l2.2 1.3 15.8 29.6 0.3 1.2v8.5l-0.2 0.9-12.1 30.9-2.3 1.6z" fill="#BC2000" p-id="7184"></path><path d="M529.8 798l15.8 29.6v8.6L533.5 867H492l-12.2-30.2v-8.6l13.1-30.2h36.9m0-5h-36.9l-4.6 3-13.1 30.2-0.4 2v8.6l0.4 1.9 12.2 30.2 4.6 3.1h41.4l4.7-3.2 12.2-30.9 0.3-1.8v-8.6l-0.6-2.4-15.8-29.6-4.4-2.5z" fill="#333333" p-id="7185"></path><path d="M474 474l-2.5-2.1-8.6-50.5 2.4-2.9h92l2.5 2.8-6 50.5-2.5 2.2z" fill="#F9F9F9" p-id="7186"></path><path d="M557.3 421l-6 50.5H474l-8.7-50.5h92m0-5h-92l-4.9 5.8 8.7 50.5 4.9 4.2h77.3l5-4.4 6-50.5-5-5.6z m0 10z" fill="#333333" p-id="7187"></path><path d="M419.1 622.3L400.8 589l-0.3-0.7-91.4-405.2v-1.2l3.8-16.5h4.9l94.9 418.7 11 23.2 12.1-3.6V572l4.9-0.7 3 10.7v0.7l-0.5 32.8-1.8 2.4-19.5 5.6z" fill="#DD9300" p-id="7188"></path><path d="M315.3 166l95 418.9 12 25.4 16-4.8V572l2.9 10.6-0.5 32.9-19.5 5.6-18.3-33.3-91.4-405.2 3.8-16.6m-4.8-1.1l-3.8 16.5v2.2l91.4 405.2 0.5 1.3 18.3 33.3 5.8 2.4 19.5-5.6 3.6-4.7 0.5-32.9-0.2-1.4-2.9-10.6-9.8 1.3v29.8l-8.3 2.5-9.9-21.1-94.9-418.3-9.8 0.1z" fill="#333333" p-id="7189"></path><path d="M577.1 614.5l-1.4-2.3v-33.4l0.3-1.2 2.9-5.7 4.7 1.1v31.7l12.2 3.6 10.9-23.2 95-418.7h4.9l3.8 16.5v1.2L619 589.3l-0.3 0.7-18.3 33.3-3.3 1z" fill="#DD9300" p-id="7190"></path><path d="M704.1 167l3.8 16.5-91.4 405.2-18.3 33.3-20-9.8v-33.5l2.9-5.8v33.5l16 4.8 12-25.4 95-418.8m4.9-1.1h-9.7l-94.9 418.3-9.9 21.1-8.3-2.5V573l-9.5-2.3-2.9 5.8-0.5 2.3v33.5l2.8 4.5 20 9.8 6.6-2.1 18.3-33.3 0.5-1.3 91.4-405.2v-2.2l-3.9-16.6z" fill="#333333" p-id="7191"></path><path d="M420.1 611.4l-12-25.5-0.2-0.5-95-418.8 0.8-2.5 8-7 4 1.2 115 413 0.1 0.7v33.5l-1.7 2.4-16 4.8z" fill="#FFE600" p-id="7192"></path><path d="M323.3 159l115 413v33.5l-16 4.8-12-25.4-95-418.9 8-7m-3.3-3.8l-8 7-1.6 4.9 95 418.9 0.4 1 12 25.4 6 2.7 16-4.8 3.6-4.8V572l-0.2-1.3-115-413-8.2-2.5z" fill="#333333" p-id="7193"></path><path d="M580.4 608.9l-1.8-2.4V573l0.1-0.7 115-413 4.1-1.2 8 7 0.8 2.5-95 418.8-0.2 0.5-12 25.5-3 1.3z" fill="#FFE600" p-id="7194"></path><path d="M696.1 160l8 7-95 418.9-12 25.4-16-4.8V573l115-413m3.3-3.8l-8.1 2.4-115 413-0.2 1.3v33.5l3.6 4.8 16 4.8 6-2.7 12-25.4 0.4-1 95-418.9-1.6-4.9-8.1-6.9z" fill="#333333" p-id="7195"></path><path d="M394.9 817.6l-1.3-1.1-28.9-53-0.3-1.2V629.2l1.3-2.2 5.5-3h2.2l24.2 10.6 1.5 2.3v32l31.2 43.6 0.5 1.5v114.8l-3.5 2.3z" fill="#F9F9F9" p-id="7196"></path><path d="M372.4 626.2l24.3 10.7v32.8l31.6 44.2v114.8l-32.4-13.5-29-53v-133l5.5-3m2-4.5l-4.4 0.2-5.5 3-2.6 4.4v133.1l0.6 2.4 29 53 2.5 2.2 32.4 13.5 6.9-4.6V714l-0.9-2.9-30.7-42.9V637l-3-4.6-24.3-10.7z" fill="#333333" p-id="7197"></path><path d="M594.8 829.5V714l0.4-1.4 32-47.1v-34.9l1.4-2.2 14.5-7 2.1-0.1 14.8 6.9 1.5 2.2v130.4l-0.3 1.3-32 56.1-1.2 1.1-29.8 12.5z" fill="#F9F9F9" p-id="7198"></path><path d="M644.2 623.6l14.8 6.8v130.4L627 817l-29.8 12.5V714l32.5-47.8v-35.6l14.5-7m2.1-4.5H642l-14.4 7-2.8 4.5v34.1l-31.6 46.5-0.9 2.8v115.5l6.9 4.6 29.8-12.5 2.4-2.1 32-56.2 0.7-2.5V630.4l-2.9-4.5-14.9-6.8z" fill="#333333" p-id="7199"></path><path d="M624.2 817V713.8l0.5-1.5 31.8-47 4.6 1.4 0.4 94.1-0.3 1.3-32.3 56.1z" fill="#CECECE" p-id="7200"></path><path d="M658.6 666.8l0.4 94.1-32.2 56.1V713.8l31.8-47m-4.2-2.9l-31.8 47-0.9 2.8V817l9.3 2.5 32.2-56.2 0.7-2.5-0.4-94.1-9.1-2.8z" fill="#333333" p-id="7201"></path><path d="M364.7 763.5l-0.3-1.2v-91.7l4.6-1.4 28.9 45.8 0.4 1.4v98.9l-4.7 1.2z" fill="#CECECE" p-id="7202"></path><path d="M366.9 670.6l29 45.8v99l-29-53v-91.8m4.2-2.7l-9.2 2.7v91.8l0.6 2.4 29 53 9.4-2.4v-99l-0.8-2.7-29-45.8z" fill="#333333" p-id="7203"></path><path d="M487.1 779.9l-2.5-2.5v-6.9l1.9-2.4 26.6-6.6h1.2l25.1 6.6 1.8 2.4v6.5l-2.4 2.5h-6.6l-0.8-0.1-18.2-6.3-19.1 6.7-0.9 0.1z" fill="#3F3F3F" p-id="7204"></path><path d="M513.7 763.9l25.1 6.6v6.5h-6.6l-19-6.5-19.9 6.9h-6.2v-6.9l26.6-6.6m-1.2-4.8l-26.6 6.6-3.8 4.9v6.9l5 5h6.2l1.6-0.3 18.3-6.4 17.4 5.9 1.6 0.3h6.6l5-5v-6.5l-3.7-4.8-25.1-6.6h-2.5z" fill="#333333" p-id="7205"></path><path d="M487.1 751.7l-2.5-2.5v-6.9l1.9-2.4 26.6-6.6h1.2l25.1 6.6 1.8 2.4v6.5l-2.4 2.5h-6.6l-0.8-0.1-18.2-6.3-19.1 6.7-0.9 0.1z" fill="#3F3F3F" p-id="7206"></path><path d="M513.7 735.7l25.1 6.6v6.5h-6.6l-19-6.5-19.9 6.9h-6.2v-6.9l26.6-6.6m-1.2-4.8l-26.6 6.6-3.8 4.9v6.9l5 5h6.2l1.6-0.3 18.3-6.4 17.4 5.9 1.6 0.3h6.6l5-5v-6.5l-3.7-4.8-25.1-6.6h-2.5z" fill="#333333" p-id="7207"></path><path d="M465.3 423.5l-2.5-2.7 5-66.3 2.5-2.3H552l2.5 2.3 5.3 66.3-2.5 2.7z" fill="#F9F9F9" p-id="7208"></path><path d="M552 354.7l5.3 66.3h-92l5-66.3H552m0-5h-81.7l-5 4.6-5 66.3 5 5.4h92l5-5.4-5.3-66.3-5-4.6z" fill="#333333" p-id="7209"></path><path d="M496 693l-2.5-2.4-3-123 2.5-2.6h39.5l2.5 2.6-3.2 123-2.5 2.4z" fill="#BC2000" p-id="7210"></path><path d="M532.5 567.5l-3.2 123H496l-3-123h39.5m0-5H493l-5 5.1 3 123 5 4.9h33.3l5-4.9 3.2-123-5-5.1z" fill="#333333" p-id="7211"></path><path d="M492.9 798h39.6v69h-39.6z" fill="#F22200" p-id="7212"></path></svg>